# Blender 3.4.1
# www.blender.org
o Cube
v 0.025000 0.025000 0.025000
v 0.025000 0.025000 -0.025000
v 0.025000 -0.025000 0.025000
v 0.025000 -0.025000 -0.025000
v -0.025000 0.025000 0.025000
v -0.025000 0.025000 -0.025000
v -0.025000 -0.025000 0.025000
v -0.025000 -0.025000 -0.025000
v 0.900000 0.025000 0.025000
v 0.900000 0.025000 -0.025000
v 0.900000 -0.025000 0.025000
v 0.900000 -0.025000 -0.025000
v 0.900000 0.050000 0.050000
v 0.900000 0.050000 -0.050000
v 0.900000 -0.050000 0.050000
v 0.900000 -0.050000 -0.050000
v 1.000000 0.050000 0.050000
v 1.000000 0.050000 -0.050000
v 1.000000 -0.050000 0.050000
v 1.000000 -0.050000 -0.050000
v 0.025000 0.875000 -0.025000
v -0.025000 0.875000 -0.025000
v 0.025000 0.875000 0.025000
v -0.025000 0.875000 0.025000
v 0.050000 0.875000 -0.050000
v -0.050000 0.875000 -0.050000
v 0.050000 0.875000 0.050000
v -0.050000 0.875000 0.050000
v 0.050000 0.975000 -0.050000
v -0.050000 0.975000 -0.050000
v 0.050000 0.975000 0.050000
v -0.050000 0.975000 0.050000
v 0.025000 -0.025000 0.875000
v -0.025000 -0.025000 0.875000
v 0.025000 0.025000 0.875000
v -0.025000 0.025000 0.875000
v 0.050000 -0.050000 0.875000
v -0.050000 -0.050000 0.875000
v 0.050000 0.050000 0.875000
v -0.050000 0.050000 0.875000
v 0.050000 -0.050000 0.975000
v -0.050000 -0.050000 0.975000
v 0.050000 0.050000 0.975000
v -0.050000 0.050000 0.975000
vn -0.0000 1.0000 -0.0000
vn -0.0000 -1.0000 -0.0000
vn -1.0000 -0.0000 -0.0000
vn -0.0000 -0.0000 -1.0000
vn -0.0000 -0.0000 1.0000
vn 1.0000 -0.0000 -0.0000
vt 0.693691 0.979706
vt 0.059528 0.768682
vt 0.585704 0.979706
vt 0.089017 0.025533
vt 0.585703 0.979706
vt 0.533730 0.357669
vt 0.223881 0.526035
vt 0.639697 0.979706
vt 0.034676 0.025533
vt 0.860012 0.031387
vt 0.278514 0.962912
vt 0.197698 0.025533
vt 0.655330 0.152987
vt 0.442867 0.720266
vt 0.639697 0.979706
vt 0.197698 0.025533
vt 0.143358 0.025533
vt 0.955217 0.452874
vt 0.747684 0.525986
vt 0.693691 0.525986
vt 0.751943 0.452874
vt 0.531710 0.979706
vt 0.143358 0.025533
vt 0.955217 0.249600
vt 0.252039 0.025533
vt 0.780508 0.278165
vt 0.409214 0.560087
vt 0.051083 0.928308
vt 0.442867 0.893037
vt 0.263548 0.970098
vt 0.028598 0.705341
vt 0.059528 0.595911
vt 0.093181 0.928860
vt 0.482415 0.526065
vt 0.126023 0.878099
vt 0.178511 0.862318
vt 0.127129 0.822330
vt 0.195922 0.753750
vt 0.106796 0.868475
vt 0.072587 0.912593
vt 0.130959 0.852973
vt 0.120330 0.867114
vt 0.585703 0.525986
vt 0.639697 0.525986
vt 0.936661 0.768957
vt 0.693691 0.979706
vt 0.531710 0.525986
vt 0.882668 0.768957
vt 0.585703 0.525986
vt 0.693691 0.525986
vt 0.936661 0.822950
vt 0.747684 0.979706
vt 0.882668 0.822950
vt 0.639697 0.525986
vt 0.855671 0.633973
vt 0.963658 0.741960
vt 0.855671 0.741960
vt 0.963658 0.633973
vt 0.855671 0.741960
vt 0.747684 0.633973
vt 0.963658 0.849947
vt 0.747684 0.741960
vt 0.855671 0.741960
vt 0.855671 0.849947
vt 0.855671 0.633973
vt 0.855671 0.633973
vt 0.855671 0.525986
vt 0.855671 0.849947
vt 0.747684 0.525986
vt 0.963658 0.525986
vt 0.963658 0.633973
vt 0.747684 0.633973
vt 0.747684 0.849947
vt 0.855671 0.741960
vt 0.855671 0.633973
vt 0.855671 0.525986
vt 0.963658 0.741960
vt 0.333550 0.433088
vt 0.197698 0.482171
vt 0.034676 0.482171
vt 0.143358 0.482171
vt 0.252039 0.482171
vt 0.279210 0.433088
vt 0.089017 0.482171
vt 0.333550 0.378748
vt 0.143358 0.482171
vt 0.197699 0.482171
vt 0.279210 0.378748
vt 0.252039 0.242896
vt 0.360721 0.460259
vt 0.469402 0.025533
vt 0.252039 0.460259
vt 0.360720 0.025533
vt 0.252039 0.134214
vt 0.360720 0.351577
vt 0.360720 0.242896
vt 0.252039 0.025533
vt 0.252039 0.351577
vt 0.360720 0.134214
vt 0.360721 0.242896
vt 0.469402 0.134214
vt 0.252039 0.351577
vt 0.360721 0.134214
vt 0.469402 0.242896
vt 0.252039 0.242896
vt 0.360720 0.351577
vt 0.360721 0.134214
vt 0.252039 0.134214
vt 0.360720 0.242896
vt 0.469402 0.134214
s 0
f 5/17/1 35/84/1 1/4/1
f 3/10/2 8/26/2 4/13/2
f 7/24/3 6/21/3 8/26/3
f 2/6/4 8/26/4 6/21/4
f 2/7/4 12/33/4 4/14/4
f 5/19/3 22/46/3 6/20/3
f 11/31/3 13/35/3 9/28/3
f 3/11/5 9/27/5 1/2/5
f 4/14/2 11/32/2 3/11/2
f 1/2/1 10/29/1 2/7/1
f 15/37/5 17/39/5 13/35/5
f 9/28/3 14/36/3 10/30/3
f 10/30/3 16/38/3 12/34/3
f 12/34/3 15/37/3 11/31/3
f 13/35/1 18/40/1 14/36/1
f 14/36/4 20/42/4 16/38/4
f 16/38/2 19/41/2 15/37/2
f 17/39/6 20/42/6 18/40/6
f 24/53/2 26/59/2 22/48/2
f 6/22/4 21/43/4 2/5/4
f 1/3/5 24/54/5 5/15/5
f 2/8/6 23/50/6 1/1/6
f 22/48/2 25/56/2 21/45/2
f 23/51/2 28/64/2 24/53/2
f 21/45/2 27/61/2 23/51/2
f 26/60/4 29/67/4 25/55/4
f 27/62/5 32/75/5 28/63/5
f 25/57/6 31/73/6 27/62/6
f 28/65/3 30/70/3 26/58/3
f 30/71/1 31/74/1 29/66/1
f 33/78/4 38/92/4 34/83/4
f 3/12/2 34/81/2 7/23/2
f 7/25/3 36/87/3 5/16/3
f 1/4/6 33/80/6 3/9/6
f 36/88/4 39/95/4 35/85/4
f 35/85/4 37/90/4 33/78/4
f 34/83/4 40/98/4 36/88/4
f 38/93/3 44/108/3 40/97/3
f 37/91/2 42/103/2 38/93/2
f 40/99/1 43/105/1 39/94/1
f 39/96/6 41/102/6 37/89/6
f 43/107/5 42/104/5 41/100/5
f 5/17/1 36/86/1 35/84/1
f 3/10/2 7/24/2 8/26/2
f 7/24/3 5/18/3 6/21/3
f 2/6/4 4/13/4 8/26/4
f 2/7/4 10/29/4 12/33/4
f 5/19/3 24/52/3 22/46/3
f 11/31/3 15/37/3 13/35/3
f 3/11/5 11/32/5 9/27/5
f 4/14/2 12/33/2 11/32/2
f 1/2/1 9/27/1 10/29/1
f 15/37/5 19/41/5 17/39/5
f 9/28/3 13/35/3 14/36/3
f 10/30/3 14/36/3 16/38/3
f 12/34/3 16/38/3 15/37/3
f 13/35/1 17/39/1 18/40/1
f 14/36/4 18/40/4 20/42/4
f 16/38/2 20/42/2 19/41/2
f 17/39/6 19/41/6 20/42/6
f 24/53/2 28/64/2 26/59/2
f 6/22/4 22/47/4 21/43/4
f 1/3/5 23/49/5 24/54/5
f 2/8/6 21/44/6 23/50/6
f 22/48/2 26/59/2 25/56/2
f 23/51/2 27/61/2 28/64/2
f 21/45/2 25/56/2 27/61/2
f 26/60/4 30/69/4 29/67/4
f 27/62/5 31/72/5 32/75/5
f 25/57/6 29/68/6 31/73/6
f 28/65/3 32/76/3 30/70/3
f 30/71/1 32/77/1 31/74/1
f 33/78/4 37/90/4 38/92/4
f 3/12/2 33/79/2 34/81/2
f 7/25/3 34/82/3 36/87/3
f 1/4/6 35/84/6 33/80/6
f 36/88/4 40/98/4 39/95/4
f 35/85/4 39/95/4 37/90/4
f 34/83/4 38/92/4 40/98/4
f 38/93/3 42/103/3 44/108/3
f 37/91/2 41/101/2 42/103/2
f 40/99/1 44/109/1 43/105/1
f 39/96/6 43/106/6 41/102/6
f 43/107/5 44/110/5 42/104/5
