# Blender 3.4.1
# www.blender.org
o Cube
v 0.025000 0.025000 0.025000
v 0.025000 0.025000 -0.025000
v 0.025000 -0.025000 0.025000
v 0.025000 -0.025000 -0.025000
v -0.025000 0.025000 0.025000
v -0.025000 0.025000 -0.025000
v -0.025000 -0.025000 0.025000
v -0.025000 -0.025000 -0.025000
v 0.900000 0.025000 0.025000
v 0.900000 0.025000 -0.025000
v 0.900000 -0.025000 0.025000
v 0.900000 -0.025000 -0.025000
v 0.025000 0.875000 -0.025000
v -0.025000 0.875000 -0.025000
v 0.025000 0.875000 0.025000
v -0.025000 0.875000 0.025000
v 0.025000 -0.025000 0.875000
v -0.025000 -0.025000 0.875000
v 0.025000 0.025000 0.875000
v -0.025000 0.025000 0.875000
v 0.950000 -0.100000 0.000000
v 1.022361 -0.044722 0.052573
v 0.922361 -0.044722 0.085065
v 0.860557 -0.044722 0.000000
v 0.922361 -0.044722 -0.085065
v 1.022361 -0.044722 -0.052573
v 0.977639 0.044722 0.085065
v 0.877639 0.044722 0.052573
v 0.877639 0.044722 -0.052573
v 0.977639 0.044722 -0.085065
v 1.039443 0.044722 0.000000
v 0.950000 0.100000 0.000000
v 0.933754 -0.085065 0.050000
v 0.992532 -0.085065 0.030901
v 0.976287 -0.052574 0.080901
v 1.035065 -0.052574 0.000000
v 0.992532 -0.085065 -0.030901
v 0.897427 -0.085065 0.000000
v 0.881181 -0.052574 0.050000
v 0.933754 -0.085065 -0.050000
v 0.881181 -0.052574 -0.050000
v 0.976287 -0.052574 -0.080901
v 1.045106 0.000000 0.030901
v 1.045106 0.000000 -0.030901
v 0.950000 0.000000 0.100000
v 1.008779 0.000000 0.080902
v 0.854894 0.000000 0.030901
v 0.891221 0.000000 0.080902
v 0.891221 0.000000 -0.080902
v 0.854894 0.000000 -0.030901
v 1.008779 0.000000 -0.080902
v 0.950000 0.000000 -0.100000
v 1.018819 0.052574 0.050000
v 0.923713 0.052574 0.080901
v 0.864935 0.052574 -0.000000
v 0.923713 0.052574 -0.080901
v 1.018819 0.052574 -0.050000
v 0.966246 0.085065 0.050000
v 1.002573 0.085065 0.000000
v 0.907468 0.085065 0.030901
v 0.907468 0.085065 -0.030901
v 0.966246 0.085065 -0.050000
v 0.000000 -0.100000 0.950000
v 0.072361 -0.044722 1.002573
v -0.027639 -0.044722 1.035065
v -0.089443 -0.044722 0.950000
v -0.027639 -0.044722 0.864935
v 0.072361 -0.044722 0.897427
v 0.027639 0.044722 1.035065
v -0.072361 0.044722 1.002573
v -0.072361 0.044722 0.897427
v 0.027639 0.044722 0.864935
v 0.089443 0.044722 0.950000
v 0.000000 0.100000 0.950000
v -0.016246 -0.085065 1.000000
v 0.042532 -0.085065 0.980901
v 0.026287 -0.052574 1.030901
v 0.085065 -0.052574 0.950000
v 0.042532 -0.085065 0.919099
v -0.052573 -0.085065 0.950000
v -0.068819 -0.052574 1.000000
v -0.016246 -0.085065 0.900000
v -0.068819 -0.052574 0.900000
v 0.026287 -0.052574 0.869099
v 0.095106 0.000000 0.980901
v 0.095106 0.000000 0.919099
v 0.000000 0.000000 1.050000
v 0.058779 0.000000 1.030902
v -0.095106 0.000000 0.980901
v -0.058779 0.000000 1.030902
v -0.058779 0.000000 0.869098
v -0.095106 0.000000 0.919099
v 0.058779 0.000000 0.869098
v 0.000000 0.000000 0.850000
v 0.068819 0.052574 1.000000
v -0.026287 0.052574 1.030901
v -0.085065 0.052574 0.950000
v -0.026287 0.052574 0.869099
v 0.068819 0.052574 0.900000
v 0.016246 0.085065 1.000000
v 0.052573 0.085065 0.950000
v -0.042532 0.085065 0.980901
v -0.042532 0.085065 0.919099
v 0.016246 0.085065 0.900000
v 0.000000 0.850000 0.000000
v 0.072361 0.905278 0.052573
v -0.027639 0.905278 0.085065
v -0.089443 0.905278 0.000000
v -0.027639 0.905278 -0.085065
v 0.072361 0.905278 -0.052573
v 0.027639 0.994722 0.085065
v -0.072361 0.994722 0.052573
v -0.072361 0.994722 -0.052573
v 0.027639 0.994722 -0.085065
v 0.089443 0.994722 0.000000
v 0.000000 1.050000 -0.000000
v -0.016246 0.864935 0.050000
v 0.042532 0.864935 0.030901
v 0.026287 0.897426 0.080901
v 0.085065 0.897426 0.000000
v 0.042532 0.864935 -0.030901
v -0.052573 0.864935 -0.000000
v -0.068819 0.897426 0.050000
v -0.016246 0.864935 -0.050000
v -0.068819 0.897426 -0.050000
v 0.026287 0.897426 -0.080901
v 0.095106 0.950000 0.030901
v 0.095106 0.950000 -0.030901
v 0.000000 0.950000 0.100000
v 0.058779 0.950000 0.080902
v -0.095106 0.950000 0.030901
v -0.058779 0.950000 0.080902
v -0.058779 0.950000 -0.080902
v -0.095106 0.950000 -0.030901
v 0.058779 0.950000 -0.080902
v 0.000000 0.950000 -0.100000
v 0.068819 1.002574 0.050000
v -0.026287 1.002574 0.080901
v -0.085065 1.002574 0.000000
v -0.026287 1.002574 -0.080901
v 0.068819 1.002574 -0.050000
v 0.016246 1.035065 0.050000
v 0.052573 1.035065 0.000000
v -0.042532 1.035065 0.030901
v -0.042532 1.035065 -0.030901
v 0.016246 1.035065 -0.050000
vn -0.0000 1.0000 -0.0000
vn -0.0000 -1.0000 -0.0000
vn -1.0000 -0.0000 -0.0000
vn -0.0000 -0.0000 -1.0000
vn -0.0000 -0.0000 1.0000
vn 1.0000 -0.0000 -0.0000
vn 0.1024 -0.9435 0.3151
vn 0.7002 -0.6617 0.2680
vn -0.2680 -0.9435 0.1947
vn -0.2680 -0.9435 -0.1947
vn 0.1024 -0.9435 -0.3151
vn 0.9050 -0.3304 0.2680
vn 0.0247 -0.3304 0.9435
vn -0.8897 -0.3304 0.3151
vn -0.5746 -0.3304 -0.7488
vn 0.5346 -0.3304 -0.7779
vn 0.8026 -0.1256 0.5831
vn -0.3066 -0.1256 0.9435
vn -0.9921 -0.1256 -0.0000
vn -0.3066 -0.1256 -0.9435
vn 0.8026 -0.1256 -0.5831
vn 0.4089 0.6617 0.6284
vn -0.4713 0.6617 0.5831
vn -0.7002 0.6617 -0.2680
vn 0.0385 0.6617 -0.7488
vn 0.7240 0.6617 -0.1947
vn 0.2680 0.9435 -0.1947
vn 0.4911 0.7947 -0.3568
vn 0.4089 0.6617 -0.6284
vn -0.1024 0.9435 -0.3151
vn -0.1876 0.7947 -0.5773
vn -0.4713 0.6617 -0.5831
vn -0.3313 0.9435 -0.0000
vn -0.6071 0.7947 -0.0000
vn -0.7002 0.6617 0.2680
vn -0.1024 0.9435 0.3151
vn -0.1876 0.7947 0.5773
vn 0.0385 0.6617 0.7488
vn 0.2680 0.9435 0.1947
vn 0.4911 0.7947 0.3568
vn 0.7240 0.6617 0.1947
vn 0.8897 0.3304 -0.3151
vn 0.7947 0.1876 -0.5773
vn 0.5746 0.3304 -0.7488
vn -0.0247 0.3304 -0.9435
vn -0.3035 0.1876 -0.9342
vn -0.5346 0.3304 -0.7779
vn -0.9050 0.3304 -0.2680
vn -0.9822 0.1876 -0.0000
vn -0.9050 0.3304 0.2680
vn -0.5346 0.3304 0.7779
vn -0.3035 0.1876 0.9342
vn -0.0247 0.3304 0.9435
vn 0.5746 0.3304 0.7488
vn 0.7947 0.1876 0.5773
vn 0.8897 0.3304 0.3151
vn 0.3066 0.1256 -0.9435
vn 0.3035 -0.1876 -0.9342
vn 0.0247 -0.3304 -0.9435
vn -0.8026 0.1256 -0.5831
vn -0.7947 -0.1876 -0.5773
vn -0.8897 -0.3304 -0.3151
vn -0.8026 0.1256 0.5831
vn -0.7947 -0.1876 0.5773
vn -0.5746 -0.3304 0.7488
vn 0.3066 0.1256 0.9435
vn 0.3035 -0.1876 0.9342
vn 0.5346 -0.3304 0.7779
vn 0.9921 0.1256 -0.0000
vn 0.9822 -0.1876 -0.0000
vn 0.9050 -0.3304 -0.2680
vn 0.4713 -0.6617 -0.5831
vn 0.1876 -0.7947 -0.5773
vn -0.0385 -0.6617 -0.7488
vn -0.4089 -0.6617 -0.6284
vn -0.4911 -0.7947 -0.3568
vn -0.7240 -0.6617 -0.1947
vn -0.7240 -0.6617 0.1947
vn -0.4911 -0.7947 0.3568
vn -0.4089 -0.6617 0.6284
vn 0.7002 -0.6617 -0.2680
vn 0.6071 -0.7947 -0.0000
vn 0.3313 -0.9435 -0.0000
vn -0.0385 -0.6617 0.7488
vn 0.1876 -0.7947 0.5773
vn 0.4713 -0.6617 0.5831
vt 0.693691 0.979706
vt 0.059528 0.768682
vt 0.585704 0.979706
vt 0.089017 0.025533
vt 0.585703 0.979706
vt 0.533730 0.357669
vt 0.223881 0.526035
vt 0.639697 0.979706
vt 0.034676 0.025533
vt 0.860012 0.031387
vt 0.278514 0.962912
vt 0.197698 0.025533
vt 0.655330 0.152987
vt 0.442867 0.720266
vt 0.639697 0.979706
vt 0.197698 0.025533
vt 0.143358 0.025533
vt 0.955217 0.452874
vt 0.747684 0.525986
vt 0.693691 0.525986
vt 0.751943 0.452874
vt 0.531710 0.979706
vt 0.143358 0.025533
vt 0.955217 0.249600
vt 0.252039 0.025533
vt 0.780508 0.278165
vt 0.409214 0.560087
vt 0.442867 0.893037
vt 0.059528 0.595911
vt 0.093181 0.928860
vt 0.585703 0.525986
vt 0.639697 0.525986
vt 0.693691 0.979706
vt 0.531710 0.525986
vt 0.585703 0.525986
vt 0.693691 0.525986
vt 0.747684 0.979706
vt 0.639697 0.525986
vt 0.197698 0.482171
vt 0.034676 0.482171
vt 0.143358 0.482171
vt 0.252039 0.482171
vt 0.089017 0.482171
vt 0.143358 0.482171
vt 0.197699 0.482171
vt 0.281259 0.554027
vt 0.469988 0.864547
vt 0.422806 0.786917
vt 0.375624 0.709287
vt 0.328442 0.631657
vt 0.237620 0.633704
vt 0.426349 0.944224
vt 0.190438 0.556074
vt 0.379166 0.866593
vt 0.331984 0.788964
vt 0.284802 0.711334
vt 0.146799 0.635750
vt 0.099617 0.558120
vt 0.335528 0.946270
vt 0.288345 0.868640
vt 0.241163 0.791010
vt 0.193981 0.713380
vt 0.150342 0.793056
vt 0.197524 0.870686
vt 0.244706 0.948316
vt 0.055978 0.637796
vt 0.103160 0.715426
vt 0.448168 0.904385
vt 0.235849 0.555051
vt 0.283031 0.632681
vt 0.259440 0.593866
vt 0.214029 0.594889
vt 0.261211 0.672519
vt 0.330213 0.710310
vt 0.306622 0.671496
vt 0.400986 0.826755
vt 0.424577 0.865570
vt 0.402757 0.905409
vt 0.353804 0.749125
vt 0.377395 0.787940
vt 0.355575 0.827779
vt 0.308393 0.750149
vt 0.215801 0.673542
vt 0.239392 0.712357
vt 0.168619 0.595912
vt 0.192210 0.634727
vt 0.357347 0.906432
vt 0.145027 0.557097
vt 0.380938 0.945247
vt 0.310165 0.828802
vt 0.333756 0.867617
vt 0.262983 0.751172
vt 0.286574 0.789987
vt 0.170390 0.674565
vt 0.123208 0.596935
vt 0.311936 0.907455
vt 0.264754 0.829825
vt 0.217572 0.752195
vt 0.101389 0.636773
vt 0.124980 0.675588
vt 0.172162 0.753218
vt 0.148571 0.714403
vt 0.290117 0.947293
vt 0.077797 0.597958
vt 0.242935 0.869663
vt 0.266526 0.908478
vt 0.195753 0.792033
vt 0.219344 0.830848
vt 0.238170 0.462138
vt 0.041103 0.122593
vt 0.090369 0.207479
vt 0.139636 0.292366
vt 0.188903 0.377252
vt 0.287051 0.377028
vt 0.089984 0.037483
vt 0.336318 0.461914
vt 0.139250 0.122369
vt 0.188517 0.207256
vt 0.237784 0.292142
vt 0.385199 0.376805
vt 0.434466 0.461692
vt 0.188131 0.037260
vt 0.237398 0.122146
vt 0.286665 0.207032
vt 0.335932 0.291918
vt 0.384813 0.206809
vt 0.335546 0.121922
vt 0.286279 0.037036
vt 0.483346 0.376581
vt 0.434080 0.291695
vt 0.065543 0.080038
vt 0.287244 0.462026
vt 0.237977 0.377140
vt 0.262610 0.419583
vt 0.311684 0.419471
vt 0.262418 0.334585
vt 0.188710 0.292254
vt 0.213344 0.334697
vt 0.114810 0.164924
vt 0.090176 0.122481
vt 0.114617 0.079926
vt 0.164077 0.249811
vt 0.139443 0.207368
vt 0.163884 0.164813
vt 0.213151 0.249699
vt 0.311491 0.334473
vt 0.286858 0.292030
vt 0.360758 0.419360
vt 0.336125 0.376917
vt 0.163691 0.079815
vt 0.385392 0.461803
vt 0.139058 0.037371
vt 0.212958 0.164701
vt 0.188324 0.122258
vt 0.262224 0.249587
vt 0.237591 0.207144
vt 0.360565 0.334362
vt 0.409832 0.419248
vt 0.212765 0.079703
vt 0.262031 0.164589
vt 0.311298 0.249475
vt 0.434273 0.376693
vt 0.409639 0.334250
vt 0.360372 0.249364
vt 0.385006 0.291807
vt 0.237205 0.037148
vt 0.458906 0.419136
vt 0.286472 0.122034
vt 0.261839 0.079591
vt 0.335739 0.206920
vt 0.311105 0.164477
vt 0.772112 0.532738
vt 0.977370 0.873727
vt 0.926056 0.788480
vt 0.874741 0.703233
vt 0.823426 0.617985
vt 0.723942 0.619802
vt 0.929201 0.960791
vt 0.672627 0.534555
vt 0.877886 0.875544
vt 0.826571 0.790297
vt 0.775256 0.705050
vt 0.624458 0.621619
vt 0.573143 0.536371
vt 0.829717 0.962608
vt 0.778402 0.877360
vt 0.727087 0.792113
vt 0.675772 0.706866
vt 0.627603 0.793930
vt 0.678917 0.879177
vt 0.730232 0.964424
vt 0.524973 0.623436
vt 0.576288 0.708683
vt 0.953286 0.917259
vt 0.722369 0.533647
vt 0.773684 0.618894
vt 0.748027 0.576270
vt 0.698284 0.577179
vt 0.749599 0.662426
vt 0.824999 0.704141
vt 0.799341 0.661518
vt 0.901971 0.832012
vt 0.927628 0.874635
vt 0.903543 0.918167
vt 0.850656 0.746765
vt 0.876313 0.789388
vt 0.852229 0.832920
vt 0.800914 0.747673
vt 0.699857 0.663334
vt 0.725514 0.705958
vt 0.648542 0.578087
vt 0.674200 0.620711
vt 0.853801 0.919076
vt 0.622885 0.535463
vt 0.879459 0.961699
vt 0.802486 0.833829
vt 0.828144 0.876452
vt 0.751172 0.748581
vt 0.776829 0.791205
vt 0.650115 0.664242
vt 0.598800 0.578995
vt 0.804059 0.919984
vt 0.752744 0.834737
vt 0.701430 0.749490
vt 0.574715 0.622527
vt 0.600373 0.665151
vt 0.651688 0.750398
vt 0.626030 0.707774
vt 0.779974 0.963516
vt 0.549058 0.579903
vt 0.728660 0.878269
vt 0.754317 0.920892
vt 0.677345 0.793022
vt 0.703002 0.835645
s 0
f 5/17/1 19/43/1 1/4/1
f 3/10/2 8/26/2 4/13/2
f 7/24/3 6/21/3 8/26/3
f 2/6/4 8/26/4 6/21/4
f 2/7/4 12/30/4 4/14/4
f 5/19/3 14/33/3 6/20/3
f 3/11/5 9/27/5 1/2/5
f 4/14/2 11/29/2 3/11/2
f 1/2/1 10/28/1 2/7/1
f 6/22/4 13/31/4 2/5/4
f 1/3/5 16/38/5 5/15/5
f 2/8/6 15/36/6 1/1/6
f 3/12/2 18/41/2 7/23/2
f 7/25/3 20/45/3 5/16/3
f 1/4/6 17/40/6 3/9/6
f 21/46/7 34/71/7 33/69/7
f 22/51/8 34/70/8 36/73/8
f 21/47/9 33/68/9 38/77/9
f 21/48/10 38/76/10 40/80/10
f 21/49/11 40/79/11 37/74/11
f 22/51/12 36/73/12 43/83/12
f 23/53/13 35/72/13 45/85/13
f 24/54/14 39/78/14 47/87/14
f 25/55/15 41/81/15 49/90/15
f 26/56/16 42/82/16 51/92/16
f 22/51/17 43/83/17 46/86/17
f 23/53/18 45/85/18 48/88/18
f 24/54/19 47/87/19 50/91/19
f 25/55/20 49/90/20 52/93/20
f 26/56/21 51/92/21 44/84/21
f 27/57/22 53/94/22 58/100/22
f 28/58/23 54/95/23 60/104/23
f 29/60/24 55/96/24 61/106/24
f 30/61/25 56/97/25 62/108/25
f 31/62/26 57/98/26 59/101/26
f 59/101/27 62/107/27 32/63/27
f 59/101/28 57/98/28 62/107/28
f 57/98/29 30/61/29 62/107/29
f 62/108/30 61/105/30 32/64/30
f 62/108/31 56/97/31 61/105/31
f 56/97/32 29/60/32 61/105/32
f 61/106/33 60/103/33 32/65/33
f 61/106/34 55/96/34 60/103/34
f 55/96/35 28/59/35 60/103/35
f 60/104/36 58/99/36 32/66/36
f 60/104/37 54/95/37 58/99/37
f 54/95/38 27/57/38 58/99/38
f 58/100/39 59/102/39 32/67/39
f 58/100/40 53/94/40 59/102/40
f 53/94/41 31/62/41 59/102/41
f 44/84/42 57/98/42 31/62/42
f 44/84/43 51/92/43 57/98/43
f 51/92/44 30/61/44 57/98/44
f 52/93/45 56/97/45 30/61/45
f 52/93/46 49/90/46 56/97/46
f 49/90/47 29/60/47 56/97/47
f 50/91/48 55/96/48 29/60/48
f 50/91/49 47/87/49 55/96/49
f 47/87/50 28/59/50 55/96/50
f 48/88/51 54/95/51 28/58/51
f 48/88/52 45/85/52 54/95/52
f 45/85/53 27/57/53 54/95/53
f 46/86/54 53/94/54 27/57/54
f 46/86/55 43/83/55 53/94/55
f 43/83/56 31/62/56 53/94/56
f 51/92/57 52/93/57 30/61/57
f 51/92/58 42/82/58 52/93/58
f 42/82/59 25/55/59 52/93/59
f 49/90/60 50/91/60 29/60/60
f 49/90/61 41/81/61 50/91/61
f 41/81/62 24/54/62 50/91/62
f 47/87/63 48/89/63 28/59/63
f 47/87/64 39/78/64 48/89/64
f 39/78/65 23/52/65 48/89/65
f 45/85/66 46/86/66 27/57/66
f 45/85/67 35/72/67 46/86/67
f 35/72/68 22/51/68 46/86/68
f 43/83/69 44/84/69 31/62/69
f 43/83/70 36/73/70 44/84/70
f 36/73/71 26/56/71 44/84/71
f 37/74/72 42/82/72 26/56/72
f 37/74/73 40/79/73 42/82/73
f 40/79/74 25/55/74 42/82/74
f 40/80/75 41/81/75 25/55/75
f 40/80/76 38/76/76 41/81/76
f 38/76/77 24/54/77 41/81/77
f 38/77/78 39/78/78 24/54/78
f 38/77/79 33/68/79 39/78/79
f 33/68/80 23/52/80 39/78/80
f 36/73/81 37/75/81 26/56/81
f 36/73/82 34/70/82 37/75/82
f 34/70/83 21/50/83 37/75/83
f 33/69/84 35/72/84 23/53/84
f 33/69/85 34/71/85 35/72/85
f 34/71/86 22/51/86 35/72/86
f 63/109/7 76/134/7 75/132/7
f 64/114/8 76/133/8 78/136/8
f 63/110/9 75/131/9 80/140/9
f 63/111/10 80/139/10 82/143/10
f 63/112/11 82/142/11 79/137/11
f 64/114/12 78/136/12 85/146/12
f 65/116/13 77/135/13 87/148/13
f 66/117/14 81/141/14 89/150/14
f 67/118/15 83/144/15 91/153/15
f 68/119/16 84/145/16 93/155/16
f 64/114/17 85/146/17 88/149/17
f 65/116/18 87/148/18 90/151/18
f 66/117/19 89/150/19 92/154/19
f 67/118/20 91/153/20 94/156/20
f 68/119/21 93/155/21 86/147/21
f 69/120/22 95/157/22 100/163/22
f 70/121/23 96/158/23 102/167/23
f 71/123/24 97/159/24 103/169/24
f 72/124/25 98/160/25 104/171/25
f 73/125/26 99/161/26 101/164/26
f 101/164/27 104/170/27 74/126/27
f 101/164/28 99/161/28 104/170/28
f 99/161/29 72/124/29 104/170/29
f 104/171/30 103/168/30 74/127/30
f 104/171/31 98/160/31 103/168/31
f 98/160/32 71/123/32 103/168/32
f 103/169/33 102/166/33 74/128/33
f 103/169/34 97/159/34 102/166/34
f 97/159/35 70/122/35 102/166/35
f 102/167/36 100/162/36 74/129/36
f 102/167/37 96/158/37 100/162/37
f 96/158/38 69/120/38 100/162/38
f 100/163/39 101/165/39 74/130/39
f 100/163/40 95/157/40 101/165/40
f 95/157/41 73/125/41 101/165/41
f 86/147/42 99/161/42 73/125/42
f 86/147/43 93/155/43 99/161/43
f 93/155/44 72/124/44 99/161/44
f 94/156/45 98/160/45 72/124/45
f 94/156/46 91/153/46 98/160/46
f 91/153/47 71/123/47 98/160/47
f 92/154/48 97/159/48 71/123/48
f 92/154/49 89/150/49 97/159/49
f 89/150/50 70/122/50 97/159/50
f 90/151/51 96/158/51 70/121/51
f 90/151/52 87/148/52 96/158/52
f 87/148/53 69/120/53 96/158/53
f 88/149/54 95/157/54 69/120/54
f 88/149/55 85/146/55 95/157/55
f 85/146/56 73/125/56 95/157/56
f 93/155/57 94/156/57 72/124/57
f 93/155/58 84/145/58 94/156/58
f 84/145/59 67/118/59 94/156/59
f 91/153/60 92/154/60 71/123/60
f 91/153/61 83/144/61 92/154/61
f 83/144/62 66/117/62 92/154/62
f 89/150/63 90/152/63 70/122/63
f 89/150/64 81/141/64 90/152/64
f 81/141/65 65/115/65 90/152/65
f 87/148/66 88/149/66 69/120/66
f 87/148/67 77/135/67 88/149/67
f 77/135/68 64/114/68 88/149/68
f 85/146/69 86/147/69 73/125/69
f 85/146/70 78/136/70 86/147/70
f 78/136/71 68/119/71 86/147/71
f 79/137/72 84/145/72 68/119/72
f 79/137/73 82/142/73 84/145/73
f 82/142/74 67/118/74 84/145/74
f 82/143/75 83/144/75 67/118/75
f 82/143/76 80/139/76 83/144/76
f 80/139/77 66/117/77 83/144/77
f 80/140/78 81/141/78 66/117/78
f 80/140/79 75/131/79 81/141/79
f 75/131/80 65/115/80 81/141/80
f 78/136/81 79/138/81 68/119/81
f 78/136/82 76/133/82 79/138/82
f 76/133/83 63/113/83 79/138/83
f 75/132/84 77/135/84 65/116/84
f 75/132/85 76/134/85 77/135/85
f 76/134/86 64/114/86 77/135/86
f 105/172/7 118/197/7 117/195/7
f 106/177/8 118/196/8 120/199/8
f 105/173/9 117/194/9 122/203/9
f 105/174/10 122/202/10 124/206/10
f 105/175/11 124/205/11 121/200/11
f 106/177/12 120/199/12 127/209/12
f 107/179/13 119/198/13 129/211/13
f 108/180/14 123/204/14 131/213/14
f 109/181/15 125/207/15 133/216/15
f 110/182/16 126/208/16 135/218/16
f 106/177/17 127/209/17 130/212/17
f 107/179/18 129/211/18 132/214/18
f 108/180/19 131/213/19 134/217/19
f 109/181/20 133/216/20 136/219/20
f 110/182/21 135/218/21 128/210/21
f 111/183/22 137/220/22 142/226/22
f 112/184/23 138/221/23 144/230/23
f 113/186/24 139/222/24 145/232/24
f 114/187/25 140/223/25 146/234/25
f 115/188/26 141/224/26 143/227/26
f 143/227/27 146/233/27 116/189/27
f 143/227/28 141/224/28 146/233/28
f 141/224/29 114/187/29 146/233/29
f 146/234/30 145/231/30 116/190/30
f 146/234/31 140/223/31 145/231/31
f 140/223/32 113/186/32 145/231/32
f 145/232/33 144/229/33 116/191/33
f 145/232/34 139/222/34 144/229/34
f 139/222/35 112/185/35 144/229/35
f 144/230/36 142/225/36 116/192/36
f 144/230/37 138/221/37 142/225/37
f 138/221/38 111/183/38 142/225/38
f 142/226/39 143/228/39 116/193/39
f 142/226/40 137/220/40 143/228/40
f 137/220/41 115/188/41 143/228/41
f 128/210/42 141/224/42 115/188/42
f 128/210/43 135/218/43 141/224/43
f 135/218/44 114/187/44 141/224/44
f 136/219/45 140/223/45 114/187/45
f 136/219/46 133/216/46 140/223/46
f 133/216/47 113/186/47 140/223/47
f 134/217/48 139/222/48 113/186/48
f 134/217/49 131/213/49 139/222/49
f 131/213/50 112/185/50 139/222/50
f 132/214/51 138/221/51 112/184/51
f 132/214/52 129/211/52 138/221/52
f 129/211/53 111/183/53 138/221/53
f 130/212/54 137/220/54 111/183/54
f 130/212/55 127/209/55 137/220/55
f 127/209/56 115/188/56 137/220/56
f 135/218/57 136/219/57 114/187/57
f 135/218/58 126/208/58 136/219/58
f 126/208/59 109/181/59 136/219/59
f 133/216/60 134/217/60 113/186/60
f 133/216/61 125/207/61 134/217/61
f 125/207/62 108/180/62 134/217/62
f 131/213/63 132/215/63 112/185/63
f 131/213/64 123/204/64 132/215/64
f 123/204/65 107/178/65 132/215/65
f 129/211/66 130/212/66 111/183/66
f 129/211/67 119/198/67 130/212/67
f 119/198/68 106/177/68 130/212/68
f 127/209/69 128/210/69 115/188/69
f 127/209/70 120/199/70 128/210/70
f 120/199/71 110/182/71 128/210/71
f 121/200/72 126/208/72 110/182/72
f 121/200/73 124/205/73 126/208/73
f 124/205/74 109/181/74 126/208/74
f 124/206/75 125/207/75 109/181/75
f 124/206/76 122/202/76 125/207/76
f 122/202/77 108/180/77 125/207/77
f 122/203/78 123/204/78 108/180/78
f 122/203/79 117/194/79 123/204/79
f 117/194/80 107/178/80 123/204/80
f 120/199/81 121/201/81 110/182/81
f 120/199/82 118/196/82 121/201/82
f 118/196/83 105/176/83 121/201/83
f 117/195/84 119/198/84 107/179/84
f 117/195/85 118/197/85 119/198/85
f 118/197/86 106/177/86 119/198/86
f 5/17/1 20/44/1 19/43/1
f 3/10/2 7/24/2 8/26/2
f 7/24/3 5/18/3 6/21/3
f 2/6/4 4/13/4 8/26/4
f 2/7/4 10/28/4 12/30/4
f 5/19/3 16/37/3 14/33/3
f 3/11/5 11/29/5 9/27/5
f 4/14/2 12/30/2 11/29/2
f 1/2/1 9/27/1 10/28/1
f 6/22/4 14/34/4 13/31/4
f 1/3/5 15/35/5 16/38/5
f 2/8/6 13/32/6 15/36/6
f 3/12/2 17/39/2 18/41/2
f 7/25/3 18/42/3 20/45/3
f 1/4/6 19/43/6 17/40/6
