# Blender 3.4.1
# www.blender.org
mtllib rotate_gizmo.mtl
o xy_disc
v 0.000000 0.001000 -1.000000
v 0.000000 -0.001000 0.000000
v 1.000000 0.001000 0.000000
v 0.980785 0.001000 -0.195090
v 0.923880 0.001000 -0.382683
v 0.831470 0.001000 -0.555570
v 0.707107 0.001000 -0.707107
v 0.555570 0.001000 -0.831470
v 0.382683 0.001000 -0.923880
v 0.195090 0.001000 -0.980785
v 0.000000 -0.001000 -1.000000
v 1.000000 -0.001000 0.000000
v 0.980785 -0.001000 -0.195090
v 0.923880 -0.001000 -0.382683
v 0.831470 -0.001000 -0.555570
v 0.707107 -0.001000 -0.707107
v 0.555570 -0.001000 -0.831470
v 0.382683 -0.001000 -0.923880
v 0.195090 -0.001000 -0.980785
v 0.000000 0.001000 0.000000
v 0.000000 1.001000 0.000000
v -0.002000 0.001000 0.000000
v -0.000000 0.001000 -1.000000
v -0.000000 0.196090 -0.980785
v -0.000000 0.383683 -0.923880
v -0.000000 0.556570 -0.831470
v 0.000000 0.708107 -0.707107
v 0.000000 0.832470 -0.555570
v 0.000000 0.924879 -0.382683
v 0.000000 0.981785 -0.195090
v -0.002000 1.001000 0.000000
v -0.002000 0.001000 -1.000000
v -0.002000 0.196090 -0.980785
v -0.002000 0.383683 -0.923880
v -0.002000 0.556570 -0.831470
v -0.002000 0.708107 -0.707107
v -0.002000 0.832470 -0.555570
v -0.002000 0.924879 -0.382683
v -0.002000 0.981785 -0.195090
v 0.000000 0.001000 0.000000
v -0.000000 1.001000 0.000000
v -0.000000 0.001000 -0.002000
v 1.000000 0.001000 0.000000
v 0.980785 0.196090 0.000000
v 0.923880 0.383683 0.000000
v 0.831470 0.556570 0.000000
v 0.707107 0.708107 0.000000
v 0.555570 0.832470 0.000000
v 0.382683 0.924879 0.000000
v 0.195090 0.981785 0.000000
v -0.000000 1.001000 -0.002000
v 1.000000 0.001000 -0.002000
v 0.980785 0.196090 -0.002000
v 0.923880 0.383683 -0.002000
v 0.831470 0.556570 -0.002000
v 0.707107 0.708107 -0.002000
v 0.555570 0.832470 -0.002000
v 0.382683 0.924879 -0.002000
v 0.195090 0.981785 -0.002000
v 0.000000 0.001000 0.000000
vn -0.0000 -1.0000 -0.0000
vn -0.0000 1.0000 -0.0000
vn -1.0000 -0.0000 -0.0000
vn 1.0000 -0.0000 -0.0000
vn -0.0000 -0.0000 -1.0000
vn -0.0000 -0.0000 1.0000
vt 0.000000 0.000000
vt 0.000000 0.000000
vt 0.000000 0.000000
vt 0.000000 0.000000
vt 0.000000 0.000000
vt 0.000000 0.000000
vt 0.000000 0.000000
vt 0.000000 0.000000
vt 0.000000 0.000000
vt 0.000000 0.000000
vt 0.000000 0.000000
vt 0.000000 0.000000
vt 0.000000 0.000000
vt 0.000000 0.000000
vt 0.000000 0.000000
vt 0.000000 0.000000
vt 0.000000 0.000000
vt 0.000000 0.000000
vt 0.000000 0.000000
vt 0.000000 0.000000
vt 0.000000 0.000000
vt 0.000000 0.000000
vt 0.000000 0.000000
vt 0.000000 0.000000
vt 0.000000 0.000000
vt 0.000000 0.000000
vt 0.000000 0.000000
vt 0.000000 0.000000
vt 0.000000 0.000000
vt 0.000000 0.000000
vt 0.000000 0.000000
vt 0.000000 0.000000
vt 0.000000 0.000000
vt 0.000000 0.000000
vt 0.000000 0.000000
vt 0.000000 0.000000
vt 0.000000 0.000000
vt 0.000000 0.000000
vt 0.000000 0.000000
vt 0.000000 0.000000
vt 0.000000 0.000000
vt 0.000000 0.000000
vt 0.000000 0.000000
vt 0.000000 0.000000
vt 0.000000 0.000000
vt 0.000000 0.000000
vt 0.000000 0.000000
vt 0.000000 0.000000
vt 0.000000 0.000000
vt 0.000000 0.000000
vt 0.000000 0.000000
vt 0.000000 0.000000
vt 0.000000 0.000000
vt 0.000000 0.000000
vt 0.000000 0.000000
vt 0.000000 0.000000
vt 0.000000 0.000000
vt 0.000000 0.000000
vt 0.000000 0.000000
vt 0.000000 0.000000
s 0
f 18/18/1 14/14/1 12/12/1
f 4/4/2 8/8/2 10/10/2
f 38/38/3 34/34/3 32/32/3
f 24/24/4 28/28/4 30/30/4
f 58/58/5 54/54/5 52/52/5
f 44/44/6 48/48/6 50/50/6
f 12/12/1 2/2/1 11/11/1
f 11/11/1 19/19/1 18/18/1
f 18/18/1 17/17/1 16/16/1
f 16/16/1 15/15/1 14/14/1
f 14/14/1 13/13/1 12/12/1
f 12/12/1 11/11/1 18/18/1
f 18/18/1 16/16/1 14/14/1
f 10/10/2 1/1/2 20/20/2
f 20/20/2 3/3/2 4/4/2
f 4/4/2 5/5/2 6/6/2
f 6/6/2 7/7/2 8/8/2
f 8/8/2 9/9/2 10/10/2
f 10/10/2 20/20/2 4/4/2
f 4/4/2 6/6/2 8/8/2
f 32/32/3 22/22/3 31/31/3
f 31/31/3 39/39/3 38/38/3
f 38/38/3 37/37/3 36/36/3
f 36/36/3 35/35/3 34/34/3
f 34/34/3 33/33/3 32/32/3
f 32/32/3 31/31/3 38/38/3
f 38/38/3 36/36/3 34/34/3
f 30/30/4 21/21/4 40/40/4
f 40/40/4 23/23/4 24/24/4
f 24/24/4 25/25/4 26/26/4
f 26/26/4 27/27/4 28/28/4
f 28/28/4 29/29/4 30/30/4
f 30/30/4 40/40/4 24/24/4
f 24/24/4 26/26/4 28/28/4
f 52/52/5 42/42/5 51/51/5
f 51/51/5 59/59/5 58/58/5
f 58/58/5 57/57/5 56/56/5
f 56/56/5 55/55/5 54/54/5
f 54/54/5 53/53/5 52/52/5
f 52/52/5 51/51/5 58/58/5
f 58/58/5 56/56/5 54/54/5
f 50/50/6 41/41/6 60/60/6
f 60/60/6 43/43/6 44/44/6
f 44/44/6 45/45/6 46/46/6
f 46/46/6 47/47/6 48/48/6
f 48/48/6 49/49/6 50/50/6
f 50/50/6 60/60/6 44/44/6
f 44/44/6 46/46/6 48/48/6
