# Blender 3.4.1
# www.blender.org
o Cube
v 1.000000 0.000000 0.000000
v -0.050000 0.050000 0.050000
v -0.050000 -0.050000 0.050000
v -0.050000 -0.050000 -0.050000
v 0.050000 0.050000 -0.050000
v 0.050000 -0.050000 -0.050000
v 0.050000 0.050000 0.050000
v 0.050000 -0.050000 0.050000
v -0.050000 0.050000 -0.050000
v -0.000000 0.000000 -1.000000
v -0.000000 1.000000 0.000000
vn 0.0526 0.9986 -0.0000
vn 0.0526 -0.0000 0.9986
vn -0.0000 -0.0000 1.0000
vn 0.0526 -0.9986 -0.0000
vn -0.0000 -1.0000 -0.0000
vn 0.0526 -0.0000 -0.9986
vn -1.0000 -0.0000 -0.0000
vn 0.9986 0.0526 -0.0000
vn 0.9986 -0.0000 -0.0526
vn -0.9986 0.0526 -0.0000
vn -0.0000 0.9986 -0.0526
vn -0.9986 -0.0000 -0.0526
vn -0.0000 -0.9986 -0.0526
vn -0.0000 0.0526 -0.9986
vn -0.0000 0.0526 0.9986
vt 0.625000 0.500000
vt 0.625000 0.750000
vt 0.375000 0.750000
vt 0.375000 0.500000
vt 0.625000 1.000000
vt 0.625000 0.000000
vt 0.375000 0.000000
vt 0.375000 1.000000
vt 0.125000 0.750000
vt 0.125000 0.500000
vt 0.375000 0.250000
vt 0.625000 0.250000
vt 0.875000 0.500000
vt 0.375000 0.250000
vt 0.125000 0.500000
vt 0.875000 0.750000
vt 0.625000 1.000000
vt 0.375000 1.000000
vt 0.125000 0.750000
vt 0.875000 0.500000
vt 0.625000 0.250000
vt 0.625000 0.250000
vt 0.875000 0.500000
vt 0.375000 0.250000
vt 0.125000 0.500000
vt 0.875000 0.750000
vt 0.625000 0.250000
vt 0.875000 0.500000
vt 0.625000 1.000000
s 0
f 1/1/1 5/13/1 7/16/1
f 1/2/2 7/17/2 8/18/2
f 7/17/3 3/8/3 8/18/3
f 6/15/4 1/3/4 8/19/4
f 8/19/5 4/10/5 6/15/5
f 6/14/6 5/12/6 1/4/6
f 2/6/7 4/11/7 3/7/7
f 7/16/8 5/13/8 11/26/8
f 5/12/9 6/14/9 10/22/9
f 9/21/10 2/6/10 11/27/10
f 9/20/11 5/13/11 10/23/11
f 4/11/12 9/21/12 10/24/12
f 6/15/13 4/10/13 10/25/13
f 5/13/14 9/20/14 11/28/14
f 2/5/15 7/17/15 11/29/15
f 7/17/3 2/5/3 3/8/3
f 8/19/5 3/9/5 4/10/5
f 2/6/7 9/21/7 4/11/7
